<svg width="522" height="509" viewBox="0 0 522 509" fill="none" xmlns="http://www.w3.org/2000/svg">
<ellipse cx="43" cy="467" rx="43" ry="42" transform="rotate(180 43 467)" fill="#C5E7FF"/>
<ellipse cx="107.5" cy="404" rx="21.5" ry="21" transform="rotate(180 107.5 404)" fill="#C5E7FF"/>
<ellipse cx="491" cy="96" rx="31" ry="30" fill="#C5E7FF"/>
<ellipse cx="43" cy="349" rx="31" ry="30" transform="rotate(180 43 349)" fill="#C5E7FF"/>
<ellipse cx="280" cy="248" rx="167" ry="163" fill="#C5E7FF"/>
<path d="M191.402 186.922L188.863 186.824L188.375 212.801H191.207L191.354 217.293L180.514 217.049V212.654L183.98 212.801L184.127 203.572H172.994V212.264H175.875L175.973 216.805L165.377 216.561V212.166L168.844 212.264L168.6 187.557L165.279 187.312L165.377 182.918H175.582V187.654L172.994 187.557V199.764L184.078 199.373L184.176 186.824L180.904 186.58L181.002 182.186H191.402V186.922ZM209.542 202.205C209.542 203.54 209.493 204.842 209.396 206.111L198.897 206.307C198.897 206.648 198.914 207.063 198.946 207.552C198.979 208.024 199.028 208.528 199.093 209.065C199.174 209.586 199.28 210.107 199.41 210.628C199.557 211.132 199.744 211.596 199.972 212.02C200.2 212.426 200.476 212.76 200.802 213.021C201.144 213.265 201.55 213.387 202.022 213.387C202.527 213.387 202.958 213.257 203.316 212.996C203.691 212.719 203.992 212.386 204.22 211.995C204.464 211.588 204.651 211.149 204.781 210.677C204.911 210.205 205.001 209.757 205.05 209.334H209.298C209.151 210.262 208.907 211.198 208.565 212.142C208.224 213.086 207.768 213.94 207.198 214.705C206.629 215.47 205.937 216.097 205.123 216.585C204.309 217.057 203.357 217.293 202.267 217.293C201.127 217.293 200.143 217.081 199.312 216.658C198.499 216.219 197.807 215.641 197.237 214.925C196.668 214.209 196.204 213.387 195.846 212.459C195.488 211.515 195.211 210.547 195.016 209.554C194.837 208.545 194.715 207.535 194.649 206.526C194.584 205.517 194.552 204.581 194.552 203.719C194.552 202.938 194.592 202.091 194.674 201.18C194.771 200.268 194.926 199.365 195.138 198.47C195.349 197.575 195.634 196.712 195.992 195.882C196.367 195.052 196.83 194.327 197.384 193.709C197.937 193.074 198.596 192.57 199.361 192.195C200.126 191.805 201.013 191.609 202.022 191.609C203.748 191.609 205.107 191.886 206.1 192.439C207.092 192.977 207.841 193.725 208.346 194.686C208.867 195.63 209.192 196.753 209.322 198.055C209.469 199.34 209.542 200.724 209.542 202.205ZM205.294 200.789C205.294 200.301 205.261 199.747 205.196 199.129C205.147 198.51 205.017 197.924 204.806 197.371C204.61 196.818 204.317 196.354 203.927 195.979C203.536 195.605 203.015 195.418 202.364 195.418C201.795 195.418 201.314 195.548 200.924 195.809C200.533 196.053 200.208 196.378 199.947 196.785C199.687 197.192 199.483 197.664 199.337 198.201C199.19 198.722 199.085 199.259 199.02 199.812C198.954 200.35 198.906 200.879 198.873 201.399C198.857 201.92 198.849 202.384 198.849 202.791H205.147C205.245 202.107 205.294 201.44 205.294 200.789ZM218.819 186.287C218.819 186.71 218.738 187.109 218.575 187.483C218.412 187.858 218.185 188.183 217.892 188.46C217.615 188.737 217.281 188.956 216.891 189.119C216.516 189.282 216.118 189.363 215.694 189.363C215.271 189.363 214.872 189.282 214.498 189.119C214.124 188.956 213.798 188.737 213.521 188.46C213.245 188.183 213.025 187.858 212.862 187.483C212.7 187.109 212.618 186.71 212.618 186.287C212.618 185.864 212.7 185.465 212.862 185.091C213.025 184.7 213.245 184.367 213.521 184.09C213.798 183.797 214.124 183.569 214.498 183.406C214.872 183.243 215.271 183.162 215.694 183.162C216.118 183.162 216.516 183.243 216.891 183.406C217.281 183.569 217.615 183.797 217.892 184.09C218.185 184.367 218.412 184.7 218.575 185.091C218.738 185.465 218.819 185.864 218.819 186.287ZM218.478 192.049L218.331 215.73C218.315 217.472 218.144 219.043 217.818 220.442C217.509 221.842 216.964 223.03 216.183 224.007C215.418 224.983 214.392 225.732 213.106 226.253C211.821 226.79 210.209 227.059 208.272 227.059C207.947 227.059 207.621 227.05 207.296 227.034C206.97 227.018 206.645 226.993 206.319 226.961L206.417 222.664C207.8 222.697 208.972 222.632 209.933 222.469C210.877 222.322 211.642 221.997 212.228 221.492C212.813 221.004 213.237 220.296 213.497 219.368C213.757 218.44 213.888 217.228 213.888 215.73V196.004L211.056 196.15L211.202 192.098L218.478 192.049ZM237.423 186.287C237.423 186.71 237.341 187.109 237.179 187.483C237.016 187.858 236.788 188.183 236.495 188.46C236.218 188.737 235.885 188.956 235.494 189.119C235.12 189.282 234.721 189.363 234.298 189.363C233.875 189.363 233.476 189.282 233.102 189.119C232.727 188.956 232.402 188.737 232.125 188.46C231.848 188.183 231.629 187.858 231.466 187.483C231.303 187.109 231.222 186.71 231.222 186.287C231.222 185.864 231.303 185.465 231.466 185.091C231.629 184.7 231.848 184.367 232.125 184.09C232.402 183.797 232.727 183.569 233.102 183.406C233.476 183.243 233.875 183.162 234.298 183.162C234.721 183.162 235.12 183.243 235.494 183.406C235.885 183.569 236.218 183.797 236.495 184.09C236.788 184.367 237.016 184.7 237.179 185.091C237.341 185.465 237.423 185.864 237.423 186.287ZM237.081 192.049L236.935 215.73C236.918 217.472 236.747 219.043 236.422 220.442C236.113 221.842 235.567 223.03 234.786 224.007C234.021 224.983 232.996 225.732 231.71 226.253C230.424 226.79 228.813 227.059 226.876 227.059C226.55 227.059 226.225 227.05 225.899 227.034C225.574 227.018 225.248 226.993 224.923 226.961L225.021 222.664C226.404 222.697 227.576 222.632 228.536 222.469C229.48 222.322 230.245 221.997 230.831 221.492C231.417 221.004 231.84 220.296 232.101 219.368C232.361 218.44 232.491 217.228 232.491 215.73V196.004L229.659 196.15L229.806 192.098L237.081 192.049ZM255.489 202.205C255.489 203.54 255.44 204.842 255.343 206.111L244.845 206.307C244.845 206.648 244.861 207.063 244.894 207.552C244.926 208.024 244.975 208.528 245.04 209.065C245.121 209.586 245.227 210.107 245.357 210.628C245.504 211.132 245.691 211.596 245.919 212.02C246.147 212.426 246.424 212.76 246.749 213.021C247.091 213.265 247.498 213.387 247.97 213.387C248.474 213.387 248.906 213.257 249.264 212.996C249.638 212.719 249.939 212.386 250.167 211.995C250.411 211.588 250.598 211.149 250.729 210.677C250.859 210.205 250.948 209.757 250.997 209.334H255.245C255.099 210.262 254.854 211.198 254.513 212.142C254.171 213.086 253.715 213.94 253.146 214.705C252.576 215.47 251.884 216.097 251.07 216.585C250.257 217.057 249.304 217.293 248.214 217.293C247.075 217.293 246.09 217.081 245.26 216.658C244.446 216.219 243.754 215.641 243.185 214.925C242.615 214.209 242.151 213.387 241.793 212.459C241.435 211.515 241.158 210.547 240.963 209.554C240.784 208.545 240.662 207.535 240.597 206.526C240.532 205.517 240.499 204.581 240.499 203.719C240.499 202.938 240.54 202.091 240.621 201.18C240.719 200.268 240.873 199.365 241.085 198.47C241.297 197.575 241.581 196.712 241.939 195.882C242.314 195.052 242.778 194.327 243.331 193.709C243.884 193.074 244.544 192.57 245.309 192.195C246.074 191.805 246.961 191.609 247.97 191.609C249.695 191.609 251.054 191.886 252.047 192.439C253.04 192.977 253.788 193.725 254.293 194.686C254.814 195.63 255.139 196.753 255.27 198.055C255.416 199.34 255.489 200.724 255.489 202.205ZM251.241 200.789C251.241 200.301 251.209 199.747 251.144 199.129C251.095 198.51 250.965 197.924 250.753 197.371C250.558 196.818 250.265 196.354 249.874 195.979C249.483 195.605 248.963 195.418 248.312 195.418C247.742 195.418 247.262 195.548 246.871 195.809C246.48 196.053 246.155 196.378 245.895 196.785C245.634 197.192 245.431 197.664 245.284 198.201C245.138 198.722 245.032 199.259 244.967 199.812C244.902 200.35 244.853 200.879 244.82 201.399C244.804 201.92 244.796 202.384 244.796 202.791H251.095C251.192 202.107 251.241 201.44 251.241 200.789ZM275.289 191.17L271.48 194.539C271.806 195.402 272.026 196.354 272.14 197.396C272.254 198.421 272.311 199.389 272.311 200.301C272.311 201.505 272.164 202.62 271.871 203.646C271.594 204.655 271.155 205.55 270.553 206.331C269.967 207.096 269.21 207.723 268.282 208.211C267.371 208.699 266.288 209.008 265.035 209.139C264.905 209.22 264.758 209.318 264.596 209.432C264.449 209.546 264.311 209.676 264.181 209.822C264.05 209.952 263.937 210.099 263.839 210.262C263.757 210.424 263.717 210.587 263.717 210.75C263.717 210.896 263.766 211.076 263.863 211.287C263.961 211.482 264.075 211.678 264.205 211.873C264.335 212.068 264.465 212.256 264.596 212.435C264.742 212.614 264.856 212.752 264.938 212.85C266.028 212.85 267.102 212.955 268.16 213.167C269.234 213.379 270.187 213.745 271.017 214.266C271.863 214.77 272.538 215.446 273.043 216.292C273.564 217.138 273.824 218.204 273.824 219.49C273.824 220.581 273.564 221.574 273.043 222.469C272.538 223.38 271.871 224.161 271.041 224.812C270.227 225.48 269.308 225.993 268.282 226.351C267.257 226.725 266.24 226.912 265.23 226.912C264.173 226.912 263.188 226.749 262.276 226.424C261.381 226.115 260.6 225.659 259.933 225.057C259.282 224.471 258.769 223.746 258.395 222.884C258.036 222.037 257.857 221.069 257.857 219.979C257.857 218.774 258.102 217.651 258.59 216.609C259.094 215.551 259.859 214.689 260.885 214.021C260.592 213.549 260.331 213.053 260.104 212.532C259.876 212.011 259.762 211.482 259.762 210.945C259.762 210.376 259.908 209.822 260.201 209.285C260.494 208.748 260.885 208.341 261.373 208.064C260.82 207.658 260.34 207.137 259.933 206.502C259.542 205.867 259.208 205.192 258.932 204.476C258.671 203.743 258.476 203.003 258.346 202.254C258.215 201.489 258.15 200.773 258.15 200.105C258.15 198.803 258.297 197.615 258.59 196.541C258.883 195.451 259.339 194.515 259.957 193.733C260.576 192.952 261.365 192.35 262.325 191.927C263.302 191.487 264.465 191.268 265.816 191.268C266.174 191.268 266.492 191.284 266.769 191.316C267.062 191.349 267.338 191.406 267.599 191.487C267.859 191.552 268.119 191.642 268.38 191.756C268.64 191.854 268.925 191.984 269.234 192.146L272.311 188.24L275.289 191.17ZM268.258 200.008C268.258 199.552 268.201 199.056 268.087 198.519C267.989 197.965 267.818 197.461 267.574 197.005C267.33 196.533 267.013 196.142 266.622 195.833C266.231 195.524 265.751 195.369 265.182 195.369C264.514 195.369 263.985 195.507 263.595 195.784C263.204 196.045 262.903 196.395 262.691 196.834C262.496 197.257 262.366 197.737 262.301 198.274C262.236 198.812 262.203 199.34 262.203 199.861C262.203 200.301 262.244 200.822 262.325 201.424C262.423 202.026 262.577 202.604 262.789 203.157C263.017 203.711 263.318 204.183 263.692 204.573C264.083 204.948 264.579 205.135 265.182 205.135C265.751 205.135 266.231 204.956 266.622 204.598C267.013 204.223 267.33 203.776 267.574 203.255C267.818 202.718 267.989 202.156 268.087 201.57C268.201 200.984 268.258 200.464 268.258 200.008ZM269.918 219.393C269.918 218.823 269.763 218.343 269.454 217.952C269.145 217.562 268.754 217.244 268.282 217C267.826 216.756 267.322 216.585 266.769 216.487C266.231 216.373 265.735 216.316 265.279 216.316C264.205 216.316 263.399 216.65 262.862 217.317C262.325 218.001 262.057 218.855 262.057 219.881C262.057 220.402 262.187 220.841 262.447 221.199C262.708 221.557 263.033 221.842 263.424 222.054C263.814 222.282 264.246 222.444 264.718 222.542C265.206 222.656 265.67 222.713 266.109 222.713C266.565 222.713 267.021 222.632 267.477 222.469C267.932 222.322 268.339 222.103 268.697 221.81C269.072 221.517 269.365 221.167 269.576 220.76C269.804 220.353 269.918 219.897 269.918 219.393ZM302.975 213.68L302.486 217.635L294.283 217.244L294.186 213.338L296.334 213.094C296.383 210.831 296.424 208.585 296.456 206.355C296.505 204.126 296.529 201.88 296.529 199.617C296.529 199.21 296.489 198.795 296.407 198.372C296.342 197.949 296.22 197.566 296.041 197.225C295.862 196.867 295.61 196.574 295.284 196.346C294.975 196.118 294.576 196.004 294.088 196.004C293.6 196.004 293.16 196.126 292.77 196.37C292.395 196.598 292.062 196.899 291.769 197.273C291.492 197.648 291.248 198.079 291.036 198.567C290.841 199.056 290.678 199.552 290.548 200.057C290.418 200.561 290.32 201.058 290.255 201.546C290.19 202.018 290.149 202.433 290.133 202.791C290.051 204.516 289.994 206.233 289.962 207.942C289.946 209.651 289.921 211.368 289.889 213.094H292.037L292.281 217.049L283.834 217.146V212.605L286.227 212.508L286.08 185.555L282.516 185.311L282.613 181.16L290.182 180.916L290.328 194.783C290.605 194.311 290.947 193.872 291.354 193.465C291.76 193.058 292.208 192.708 292.696 192.415C293.185 192.122 293.705 191.894 294.259 191.731C294.812 191.552 295.374 191.463 295.943 191.463C296.676 191.463 297.302 191.593 297.823 191.854C298.344 192.098 298.784 192.431 299.142 192.854C299.5 193.261 299.776 193.75 299.972 194.319C300.183 194.873 300.346 195.459 300.46 196.077C300.574 196.679 300.647 197.298 300.68 197.933C300.712 198.551 300.729 199.145 300.729 199.715C300.729 202.026 300.696 204.321 300.631 206.6C300.582 208.878 300.533 211.173 300.484 213.484L302.975 213.68ZM319.845 202.205C319.845 203.54 319.796 204.842 319.698 206.111L309.2 206.307C309.2 206.648 309.216 207.063 309.249 207.552C309.282 208.024 309.33 208.528 309.396 209.065C309.477 209.586 309.583 210.107 309.713 210.628C309.859 211.132 310.047 211.596 310.274 212.02C310.502 212.426 310.779 212.76 311.104 213.021C311.446 213.265 311.853 213.387 312.325 213.387C312.83 213.387 313.261 213.257 313.619 212.996C313.993 212.719 314.295 212.386 314.522 211.995C314.767 211.588 314.954 211.149 315.084 210.677C315.214 210.205 315.304 209.757 315.353 209.334H319.601C319.454 210.262 319.21 211.198 318.868 212.142C318.526 213.086 318.071 213.94 317.501 214.705C316.931 215.47 316.24 216.097 315.426 216.585C314.612 217.057 313.66 217.293 312.569 217.293C311.43 217.293 310.445 217.081 309.615 216.658C308.801 216.219 308.11 215.641 307.54 214.925C306.97 214.209 306.507 213.387 306.148 212.459C305.79 211.515 305.514 210.547 305.318 209.554C305.139 208.545 305.017 207.535 304.952 206.526C304.887 205.517 304.854 204.581 304.854 203.719C304.854 202.938 304.895 202.091 304.977 201.18C305.074 200.268 305.229 199.365 305.44 198.47C305.652 197.575 305.937 196.712 306.295 195.882C306.669 195.052 307.133 194.327 307.687 193.709C308.24 193.074 308.899 192.57 309.664 192.195C310.429 191.805 311.316 191.609 312.325 191.609C314.05 191.609 315.41 191.886 316.402 192.439C317.395 192.977 318.144 193.725 318.648 194.686C319.169 195.63 319.495 196.753 319.625 198.055C319.771 199.34 319.845 200.724 319.845 202.205ZM315.597 200.789C315.597 200.301 315.564 199.747 315.499 199.129C315.45 198.51 315.32 197.924 315.108 197.371C314.913 196.818 314.62 196.354 314.229 195.979C313.839 195.605 313.318 195.418 312.667 195.418C312.097 195.418 311.617 195.548 311.227 195.809C310.836 196.053 310.51 196.378 310.25 196.785C309.99 197.192 309.786 197.664 309.64 198.201C309.493 198.722 309.387 199.259 309.322 199.812C309.257 200.35 309.208 200.879 309.176 201.399C309.16 201.92 309.151 202.384 309.151 202.791H315.45C315.548 202.107 315.597 201.44 315.597 200.789ZM341.134 217.049L334.591 217.244L334.249 214.412C333.712 215.291 332.996 215.983 332.101 216.487C331.205 216.992 330.245 217.244 329.22 217.244C328.211 217.244 327.34 217.033 326.607 216.609C325.891 216.186 325.273 215.625 324.752 214.925C324.247 214.225 323.832 213.427 323.507 212.532C323.198 211.637 322.953 210.717 322.774 209.773C322.612 208.829 322.498 207.902 322.433 206.99C322.368 206.079 322.335 205.249 322.335 204.5C322.335 203.751 322.384 202.913 322.481 201.985C322.579 201.041 322.742 200.089 322.97 199.129C323.214 198.169 323.523 197.233 323.897 196.321C324.288 195.41 324.76 194.596 325.313 193.88C325.883 193.164 326.55 192.594 327.315 192.171C328.08 191.731 328.959 191.512 329.952 191.512C330.717 191.512 331.441 191.715 332.125 192.122C332.825 192.513 333.37 193.025 333.761 193.66V185.701H329.366V181.502L338.302 181.648L337.911 213.094L341.134 212.996V217.049ZM333.614 199.031C333.517 198.738 333.378 198.413 333.199 198.055C333.02 197.697 332.8 197.363 332.54 197.054C332.296 196.728 332.011 196.46 331.686 196.248C331.376 196.02 331.043 195.906 330.685 195.906C330.147 195.906 329.675 196.061 329.269 196.37C328.878 196.679 328.544 197.078 328.268 197.566C327.991 198.055 327.755 198.608 327.56 199.227C327.381 199.829 327.242 200.439 327.145 201.058C327.047 201.66 326.974 202.238 326.925 202.791C326.892 203.328 326.876 203.784 326.876 204.158C326.876 204.5 326.876 204.948 326.876 205.501C326.876 206.054 326.9 206.657 326.949 207.308C326.998 207.942 327.079 208.593 327.193 209.261C327.324 209.912 327.503 210.506 327.73 211.043C327.958 211.58 328.251 212.02 328.609 212.361C328.967 212.687 329.415 212.85 329.952 212.85C330.359 212.85 330.75 212.736 331.124 212.508C331.498 212.264 331.84 211.971 332.149 211.629C332.459 211.271 332.727 210.896 332.955 210.506C333.199 210.115 333.386 209.757 333.517 209.432L333.614 199.031ZM361.446 217.049L354.903 217.244L354.562 214.412C354.024 215.291 353.308 215.983 352.413 216.487C351.518 216.992 350.558 217.244 349.532 217.244C348.523 217.244 347.652 217.033 346.92 216.609C346.204 216.186 345.585 215.625 345.064 214.925C344.56 214.225 344.145 213.427 343.819 212.532C343.51 211.637 343.266 210.717 343.087 209.773C342.924 208.829 342.81 207.902 342.745 206.99C342.68 206.079 342.647 205.249 342.647 204.5C342.647 203.751 342.696 202.913 342.794 201.985C342.892 201.041 343.054 200.089 343.282 199.129C343.526 198.169 343.836 197.233 344.21 196.321C344.601 195.41 345.073 194.596 345.626 193.88C346.196 193.164 346.863 192.594 347.628 192.171C348.393 191.731 349.272 191.512 350.265 191.512C351.03 191.512 351.754 191.715 352.438 192.122C353.137 192.513 353.683 193.025 354.073 193.66V185.701H349.679V181.502L358.614 181.648L358.224 213.094L361.446 212.996V217.049ZM353.927 199.031C353.829 198.738 353.691 198.413 353.512 198.055C353.333 197.697 353.113 197.363 352.853 197.054C352.608 196.728 352.324 196.46 351.998 196.248C351.689 196.02 351.355 195.906 350.997 195.906C350.46 195.906 349.988 196.061 349.581 196.37C349.19 196.679 348.857 197.078 348.58 197.566C348.303 198.055 348.067 198.608 347.872 199.227C347.693 199.829 347.555 200.439 347.457 201.058C347.359 201.66 347.286 202.238 347.237 202.791C347.205 203.328 347.188 203.784 347.188 204.158C347.188 204.5 347.188 204.948 347.188 205.501C347.188 206.054 347.213 206.657 347.262 207.308C347.311 207.942 347.392 208.593 347.506 209.261C347.636 209.912 347.815 210.506 348.043 211.043C348.271 211.58 348.564 212.02 348.922 212.361C349.28 212.687 349.728 212.85 350.265 212.85C350.672 212.85 351.062 212.736 351.437 212.508C351.811 212.264 352.153 211.971 352.462 211.629C352.771 211.271 353.04 210.896 353.268 210.506C353.512 210.115 353.699 209.757 353.829 209.432L353.927 199.031ZM377.999 202.205C377.999 203.54 377.95 204.842 377.853 206.111L367.354 206.307C367.354 206.648 367.371 207.063 367.403 207.552C367.436 208.024 367.485 208.528 367.55 209.065C367.631 209.586 367.737 210.107 367.867 210.628C368.014 211.132 368.201 211.596 368.429 212.02C368.657 212.426 368.933 212.76 369.259 213.021C369.601 213.265 370.007 213.387 370.479 213.387C370.984 213.387 371.415 213.257 371.773 212.996C372.148 212.719 372.449 212.386 372.677 211.995C372.921 211.588 373.108 211.149 373.238 210.677C373.368 210.205 373.458 209.757 373.507 209.334H377.755C377.608 210.262 377.364 211.198 377.022 212.142C376.681 213.086 376.225 213.94 375.655 214.705C375.086 215.47 374.394 216.097 373.58 216.585C372.766 217.057 371.814 217.293 370.724 217.293C369.584 217.293 368.6 217.081 367.77 216.658C366.956 216.219 366.264 215.641 365.694 214.925C365.125 214.209 364.661 213.387 364.303 212.459C363.945 211.515 363.668 210.547 363.473 209.554C363.294 208.545 363.172 207.535 363.106 206.526C363.041 205.517 363.009 204.581 363.009 203.719C363.009 202.938 363.049 202.091 363.131 201.18C363.229 200.268 363.383 199.365 363.595 198.47C363.806 197.575 364.091 196.712 364.449 195.882C364.824 195.052 365.287 194.327 365.841 193.709C366.394 193.074 367.053 192.57 367.818 192.195C368.583 191.805 369.47 191.609 370.479 191.609C372.205 191.609 373.564 191.886 374.557 192.439C375.549 192.977 376.298 193.725 376.803 194.686C377.324 195.63 377.649 196.753 377.779 198.055C377.926 199.34 377.999 200.724 377.999 202.205ZM373.751 200.789C373.751 200.301 373.718 199.747 373.653 199.129C373.604 198.51 373.474 197.924 373.263 197.371C373.067 196.818 372.774 196.354 372.384 195.979C371.993 195.605 371.472 195.418 370.821 195.418C370.252 195.418 369.771 195.548 369.381 195.809C368.99 196.053 368.665 196.378 368.404 196.785C368.144 197.192 367.94 197.664 367.794 198.201C367.647 198.722 367.542 199.259 367.477 199.812C367.411 200.35 367.363 200.879 367.33 201.399C367.314 201.92 367.306 202.384 367.306 202.791H373.604C373.702 202.107 373.751 201.44 373.751 200.789ZM393.136 197.469C392.517 197.599 391.915 197.819 391.329 198.128C390.743 198.437 390.222 198.82 389.767 199.275C389.311 199.715 388.945 200.228 388.668 200.813C388.391 201.383 388.253 202.01 388.253 202.693C388.253 204.321 388.245 205.932 388.229 207.527C388.212 209.122 388.188 210.734 388.155 212.361L391.72 212.508V216.902L379.806 217.146L380.147 212.508L383.37 212.361L383.712 196.639L381.124 196.736L380.978 192.244L387.521 191.609V194.979C387.862 194.702 388.261 194.401 388.717 194.075C389.173 193.75 389.653 193.44 390.157 193.147C390.662 192.854 391.166 192.594 391.671 192.366C392.192 192.122 392.68 191.951 393.136 191.854V197.469ZM189.596 263.533L189.107 267.439L180.904 267.098L180.807 263.143L182.955 262.898C183.004 260.685 183.045 258.479 183.077 256.282C183.126 254.085 183.15 251.88 183.15 249.666C183.15 249.275 183.11 248.868 183.028 248.445C182.963 248.022 182.841 247.632 182.662 247.273C182.483 246.915 182.231 246.622 181.905 246.395C181.596 246.167 181.197 246.053 180.709 246.053C179.993 246.053 179.382 246.256 178.878 246.663C178.39 247.054 177.991 247.542 177.682 248.128C177.372 248.714 177.145 249.349 176.998 250.032C176.852 250.716 176.77 251.342 176.754 251.912C176.673 253.751 176.616 255.582 176.583 257.405C176.567 259.228 176.542 261.059 176.51 262.898H178.658L178.902 266.854L170.455 266.951V262.459L172.848 262.312L172.701 246.443L169.137 246.199L169.234 242.049L176.266 241.805L176.412 245.271C176.738 244.783 177.12 244.319 177.56 243.88C178.015 243.424 178.512 243.025 179.049 242.684C179.586 242.342 180.147 242.073 180.733 241.878C181.336 241.666 181.946 241.561 182.564 241.561C183.297 241.561 183.924 241.683 184.444 241.927C184.965 242.171 185.405 242.505 185.763 242.928C186.121 243.351 186.397 243.839 186.593 244.393C186.804 244.93 186.967 245.507 187.081 246.126C187.195 246.728 187.268 247.347 187.301 247.981C187.333 248.6 187.35 249.194 187.35 249.764C187.35 252.026 187.317 254.28 187.252 256.526C187.203 258.772 187.154 261.027 187.105 263.289L189.596 263.533ZM206.49 252.205C206.49 253.54 206.441 254.842 206.344 256.111L195.846 256.307C195.846 256.648 195.862 257.063 195.895 257.552C195.927 258.024 195.976 258.528 196.041 259.065C196.122 259.586 196.228 260.107 196.358 260.628C196.505 261.132 196.692 261.596 196.92 262.02C197.148 262.426 197.424 262.76 197.75 263.021C198.092 263.265 198.499 263.387 198.971 263.387C199.475 263.387 199.907 263.257 200.265 262.996C200.639 262.719 200.94 262.386 201.168 261.995C201.412 261.588 201.599 261.149 201.729 260.677C201.86 260.205 201.949 259.757 201.998 259.334H206.246C206.1 260.262 205.855 261.198 205.514 262.142C205.172 263.086 204.716 263.94 204.146 264.705C203.577 265.47 202.885 266.097 202.071 266.585C201.257 267.057 200.305 267.293 199.215 267.293C198.076 267.293 197.091 267.081 196.261 266.658C195.447 266.219 194.755 265.641 194.186 264.925C193.616 264.209 193.152 263.387 192.794 262.459C192.436 261.515 192.159 260.547 191.964 259.554C191.785 258.545 191.663 257.535 191.598 256.526C191.533 255.517 191.5 254.581 191.5 253.719C191.5 252.938 191.541 252.091 191.622 251.18C191.72 250.268 191.874 249.365 192.086 248.47C192.298 247.575 192.582 246.712 192.94 245.882C193.315 245.052 193.779 244.327 194.332 243.709C194.885 243.074 195.545 242.57 196.31 242.195C197.075 241.805 197.962 241.609 198.971 241.609C200.696 241.609 202.055 241.886 203.048 242.439C204.041 242.977 204.789 243.725 205.294 244.686C205.815 245.63 206.14 246.753 206.271 248.055C206.417 249.34 206.49 250.724 206.49 252.205ZM202.242 250.789C202.242 250.301 202.21 249.747 202.145 249.129C202.096 248.51 201.965 247.924 201.754 247.371C201.559 246.818 201.266 246.354 200.875 245.979C200.484 245.605 199.964 245.418 199.312 245.418C198.743 245.418 198.263 245.548 197.872 245.809C197.481 246.053 197.156 246.378 196.896 246.785C196.635 247.192 196.432 247.664 196.285 248.201C196.139 248.722 196.033 249.259 195.968 249.812C195.903 250.35 195.854 250.879 195.821 251.399C195.805 251.92 195.797 252.384 195.797 252.791H202.096C202.193 252.107 202.242 251.44 202.242 250.789ZM237.154 263.045L236.91 266.951L229.195 267.342L229.098 263.143L231.002 262.898C231.051 260.734 231.091 258.585 231.124 256.453C231.173 254.321 231.197 252.173 231.197 250.008C231.197 249.65 231.165 249.267 231.1 248.86C231.035 248.453 230.921 248.079 230.758 247.737C230.595 247.396 230.367 247.111 230.074 246.883C229.798 246.655 229.439 246.541 229 246.541C228.528 246.541 228.097 246.663 227.706 246.907C227.315 247.151 226.974 247.461 226.681 247.835C226.404 248.193 226.184 248.6 226.021 249.056C225.859 249.511 225.777 249.943 225.777 250.35C225.745 252.514 225.704 254.671 225.655 256.819C225.623 258.968 225.582 261.124 225.533 263.289L227.535 263.533L227.047 267.439L219.576 267.098L219.723 263.143L221.383 262.898C221.432 260.669 221.472 258.439 221.505 256.209C221.554 253.979 221.578 251.749 221.578 249.52C221.578 249.161 221.546 248.779 221.48 248.372C221.415 247.965 221.301 247.591 221.139 247.249C220.976 246.907 220.748 246.622 220.455 246.395C220.178 246.167 219.82 246.053 219.381 246.053C218.665 246.053 218.079 246.256 217.623 246.663C217.184 247.07 216.842 247.575 216.598 248.177C216.354 248.779 216.183 249.422 216.085 250.105C215.987 250.773 215.93 251.375 215.914 251.912C215.833 253.751 215.776 255.582 215.743 257.405C215.727 259.228 215.702 261.059 215.67 262.898H217.574V266.854L209.615 266.951V262.459L212.008 262.312L211.861 246.443L208.297 246.199L208.395 242.049L215.426 241.805L215.572 245.271C215.833 244.767 216.158 244.287 216.549 243.831C216.956 243.375 217.403 242.985 217.892 242.659C218.38 242.317 218.901 242.049 219.454 241.854C220.007 241.658 220.585 241.561 221.188 241.561C221.822 241.561 222.368 241.65 222.823 241.829C223.295 242.008 223.694 242.269 224.02 242.61C224.361 242.952 224.638 243.359 224.85 243.831C225.077 244.303 225.257 244.832 225.387 245.418C225.696 244.946 226.038 244.507 226.412 244.1C226.803 243.676 227.226 243.318 227.682 243.025C228.137 242.716 228.626 242.48 229.146 242.317C229.667 242.138 230.221 242.049 230.807 242.049C231.897 242.049 232.743 242.317 233.346 242.854C233.964 243.392 234.42 244.067 234.713 244.881C235.022 245.678 235.209 246.557 235.274 247.518C235.356 248.462 235.396 249.34 235.396 250.154C235.396 252.319 235.364 254.467 235.299 256.6C235.25 258.732 235.201 260.88 235.152 263.045H237.154ZM254.854 253.719C254.854 254.533 254.806 255.436 254.708 256.429C254.61 257.422 254.439 258.431 254.195 259.456C253.951 260.465 253.626 261.458 253.219 262.435C252.828 263.395 252.332 264.249 251.729 264.998C251.127 265.747 250.419 266.349 249.605 266.805C248.808 267.26 247.872 267.488 246.798 267.488C245.789 267.488 244.902 267.301 244.137 266.927C243.372 266.536 242.713 266.032 242.159 265.413C241.606 264.778 241.142 264.046 240.768 263.216C240.393 262.386 240.092 261.523 239.864 260.628C239.653 259.733 239.498 258.829 239.4 257.918C239.319 257.007 239.278 256.16 239.278 255.379C239.278 254.565 239.327 253.654 239.425 252.645C239.522 251.635 239.685 250.618 239.913 249.593C240.157 248.551 240.475 247.542 240.865 246.565C241.272 245.589 241.769 244.726 242.354 243.978C242.957 243.213 243.665 242.602 244.479 242.146C245.292 241.691 246.244 241.463 247.335 241.463C248.328 241.463 249.199 241.658 249.947 242.049C250.712 242.439 251.371 242.96 251.925 243.611C252.494 244.262 252.958 245.011 253.316 245.857C253.691 246.704 253.992 247.583 254.22 248.494C254.448 249.389 254.61 250.293 254.708 251.204C254.806 252.116 254.854 252.954 254.854 253.719ZM250.997 253.572C250.997 253.23 250.981 252.791 250.948 252.254C250.916 251.717 250.851 251.147 250.753 250.545C250.672 249.943 250.549 249.34 250.387 248.738C250.224 248.136 250.012 247.591 249.752 247.103C249.492 246.614 249.166 246.224 248.775 245.931C248.401 245.621 247.953 245.467 247.433 245.467C246.798 245.467 246.253 245.662 245.797 246.053C245.357 246.427 244.975 246.915 244.649 247.518C244.34 248.12 244.088 248.795 243.893 249.544C243.697 250.276 243.543 251.017 243.429 251.766C243.331 252.498 243.266 253.19 243.233 253.841C243.201 254.492 243.185 255.021 243.185 255.428C243.185 255.77 243.201 256.209 243.233 256.746C243.266 257.267 243.331 257.828 243.429 258.431C243.526 259.033 243.657 259.635 243.819 260.237C243.998 260.823 244.218 261.36 244.479 261.849C244.739 262.337 245.056 262.736 245.431 263.045C245.805 263.338 246.244 263.484 246.749 263.484C247.368 263.484 247.896 263.297 248.336 262.923C248.792 262.549 249.174 262.068 249.483 261.482C249.809 260.88 250.069 260.213 250.265 259.48C250.46 258.748 250.606 258.016 250.704 257.283C250.818 256.535 250.891 255.835 250.924 255.184C250.973 254.533 250.997 253.995 250.997 253.572ZM281.661 253.719C281.661 254.533 281.612 255.436 281.515 256.429C281.417 257.422 281.246 258.431 281.002 259.456C280.758 260.465 280.432 261.458 280.025 262.435C279.635 263.395 279.138 264.249 278.536 264.998C277.934 265.747 277.226 266.349 276.412 266.805C275.615 267.26 274.679 267.488 273.604 267.488C272.595 267.488 271.708 267.301 270.943 266.927C270.178 266.536 269.519 266.032 268.966 265.413C268.412 264.778 267.949 264.046 267.574 263.216C267.2 262.386 266.899 261.523 266.671 260.628C266.459 259.733 266.305 258.829 266.207 257.918C266.126 257.007 266.085 256.16 266.085 255.379C266.085 254.565 266.134 253.654 266.231 252.645C266.329 251.635 266.492 250.618 266.72 249.593C266.964 248.551 267.281 247.542 267.672 246.565C268.079 245.589 268.575 244.726 269.161 243.978C269.763 243.213 270.471 242.602 271.285 242.146C272.099 241.691 273.051 241.463 274.142 241.463C275.134 241.463 276.005 241.658 276.754 242.049C277.519 242.439 278.178 242.96 278.731 243.611C279.301 244.262 279.765 245.011 280.123 245.857C280.497 246.704 280.799 247.583 281.026 248.494C281.254 249.389 281.417 250.293 281.515 251.204C281.612 252.116 281.661 252.954 281.661 253.719ZM277.804 253.572C277.804 253.23 277.787 252.791 277.755 252.254C277.722 251.717 277.657 251.147 277.56 250.545C277.478 249.943 277.356 249.34 277.193 248.738C277.031 248.136 276.819 247.591 276.559 247.103C276.298 246.614 275.973 246.224 275.582 245.931C275.208 245.621 274.76 245.467 274.239 245.467C273.604 245.467 273.059 245.662 272.604 246.053C272.164 246.427 271.782 246.915 271.456 247.518C271.147 248.12 270.895 248.795 270.699 249.544C270.504 250.276 270.349 251.017 270.235 251.766C270.138 252.498 270.073 253.19 270.04 253.841C270.007 254.492 269.991 255.021 269.991 255.428C269.991 255.77 270.007 256.209 270.04 256.746C270.073 257.267 270.138 257.828 270.235 258.431C270.333 259.033 270.463 259.635 270.626 260.237C270.805 260.823 271.025 261.36 271.285 261.849C271.546 262.337 271.863 262.736 272.237 263.045C272.612 263.338 273.051 263.484 273.556 263.484C274.174 263.484 274.703 263.297 275.143 262.923C275.598 262.549 275.981 262.068 276.29 261.482C276.616 260.88 276.876 260.213 277.071 259.48C277.267 258.748 277.413 258.016 277.511 257.283C277.625 256.535 277.698 255.835 277.73 255.184C277.779 254.533 277.804 253.995 277.804 253.572ZM301.437 241.17L297.628 244.539C297.953 245.402 298.173 246.354 298.287 247.396C298.401 248.421 298.458 249.389 298.458 250.301C298.458 251.505 298.312 252.62 298.019 253.646C297.742 254.655 297.302 255.55 296.7 256.331C296.114 257.096 295.357 257.723 294.43 258.211C293.518 258.699 292.436 259.008 291.183 259.139C291.052 259.22 290.906 259.318 290.743 259.432C290.597 259.546 290.458 259.676 290.328 259.822C290.198 259.952 290.084 260.099 289.986 260.262C289.905 260.424 289.864 260.587 289.864 260.75C289.864 260.896 289.913 261.076 290.011 261.287C290.108 261.482 290.222 261.678 290.353 261.873C290.483 262.068 290.613 262.256 290.743 262.435C290.89 262.614 291.004 262.752 291.085 262.85C292.175 262.85 293.25 262.955 294.308 263.167C295.382 263.379 296.334 263.745 297.164 264.266C298.01 264.77 298.686 265.446 299.19 266.292C299.711 267.138 299.972 268.204 299.972 269.49C299.972 270.581 299.711 271.574 299.19 272.469C298.686 273.38 298.019 274.161 297.188 274.812C296.375 275.48 295.455 275.993 294.43 276.351C293.404 276.725 292.387 276.912 291.378 276.912C290.32 276.912 289.335 276.749 288.424 276.424C287.529 276.115 286.747 275.659 286.08 275.057C285.429 274.471 284.916 273.746 284.542 272.884C284.184 272.037 284.005 271.069 284.005 269.979C284.005 268.774 284.249 267.651 284.737 266.609C285.242 265.551 286.007 264.689 287.032 264.021C286.739 263.549 286.479 263.053 286.251 262.532C286.023 262.011 285.909 261.482 285.909 260.945C285.909 260.376 286.056 259.822 286.349 259.285C286.642 258.748 287.032 258.341 287.521 258.064C286.967 257.658 286.487 257.137 286.08 256.502C285.689 255.867 285.356 255.192 285.079 254.476C284.819 253.743 284.623 253.003 284.493 252.254C284.363 251.489 284.298 250.773 284.298 250.105C284.298 248.803 284.444 247.615 284.737 246.541C285.03 245.451 285.486 244.515 286.104 243.733C286.723 242.952 287.512 242.35 288.473 241.927C289.449 241.487 290.613 241.268 291.964 241.268C292.322 241.268 292.639 241.284 292.916 241.316C293.209 241.349 293.486 241.406 293.746 241.487C294.007 241.552 294.267 241.642 294.527 241.756C294.788 241.854 295.073 241.984 295.382 242.146L298.458 238.24L301.437 241.17ZM294.405 250.008C294.405 249.552 294.348 249.056 294.234 248.519C294.137 247.965 293.966 247.461 293.722 247.005C293.478 246.533 293.16 246.142 292.77 245.833C292.379 245.524 291.899 245.369 291.329 245.369C290.662 245.369 290.133 245.507 289.742 245.784C289.352 246.045 289.05 246.395 288.839 246.834C288.644 247.257 288.513 247.737 288.448 248.274C288.383 248.812 288.351 249.34 288.351 249.861C288.351 250.301 288.391 250.822 288.473 251.424C288.57 252.026 288.725 252.604 288.937 253.157C289.164 253.711 289.465 254.183 289.84 254.573C290.23 254.948 290.727 255.135 291.329 255.135C291.899 255.135 292.379 254.956 292.77 254.598C293.16 254.223 293.478 253.776 293.722 253.255C293.966 252.718 294.137 252.156 294.234 251.57C294.348 250.984 294.405 250.464 294.405 250.008ZM296.065 269.393C296.065 268.823 295.911 268.343 295.602 267.952C295.292 267.562 294.902 267.244 294.43 267C293.974 266.756 293.469 266.585 292.916 266.487C292.379 266.373 291.882 266.316 291.427 266.316C290.353 266.316 289.547 266.65 289.01 267.317C288.473 268.001 288.204 268.855 288.204 269.881C288.204 270.402 288.334 270.841 288.595 271.199C288.855 271.557 289.181 271.842 289.571 272.054C289.962 272.282 290.393 272.444 290.865 272.542C291.354 272.656 291.817 272.713 292.257 272.713C292.713 272.713 293.168 272.632 293.624 272.469C294.08 272.322 294.487 272.103 294.845 271.81C295.219 271.517 295.512 271.167 295.724 270.76C295.951 270.353 296.065 269.897 296.065 269.393ZM325.582 252.205C325.582 253.54 325.533 254.842 325.436 256.111L314.938 256.307C314.938 256.648 314.954 257.063 314.986 257.552C315.019 258.024 315.068 258.528 315.133 259.065C315.214 259.586 315.32 260.107 315.45 260.628C315.597 261.132 315.784 261.596 316.012 262.02C316.24 262.426 316.516 262.76 316.842 263.021C317.184 263.265 317.59 263.387 318.062 263.387C318.567 263.387 318.998 263.257 319.356 262.996C319.731 262.719 320.032 262.386 320.26 261.995C320.504 261.588 320.691 261.149 320.821 260.677C320.951 260.205 321.041 259.757 321.09 259.334H325.338C325.191 260.262 324.947 261.198 324.605 262.142C324.264 263.086 323.808 263.94 323.238 264.705C322.669 265.47 321.977 266.097 321.163 266.585C320.349 267.057 319.397 267.293 318.307 267.293C317.167 267.293 316.183 267.081 315.353 266.658C314.539 266.219 313.847 265.641 313.277 264.925C312.708 264.209 312.244 263.387 311.886 262.459C311.528 261.515 311.251 260.547 311.056 259.554C310.877 258.545 310.755 257.535 310.689 256.526C310.624 255.517 310.592 254.581 310.592 253.719C310.592 252.938 310.632 252.091 310.714 251.18C310.812 250.268 310.966 249.365 311.178 248.47C311.389 247.575 311.674 246.712 312.032 245.882C312.407 245.052 312.87 244.327 313.424 243.709C313.977 243.074 314.636 242.57 315.401 242.195C316.166 241.805 317.053 241.609 318.062 241.609C319.788 241.609 321.147 241.886 322.14 242.439C323.132 242.977 323.881 243.725 324.386 244.686C324.907 245.63 325.232 246.753 325.362 248.055C325.509 249.34 325.582 250.724 325.582 252.205ZM321.334 250.789C321.334 250.301 321.301 249.747 321.236 249.129C321.188 248.51 321.057 247.924 320.846 247.371C320.65 246.818 320.357 246.354 319.967 245.979C319.576 245.605 319.055 245.418 318.404 245.418C317.835 245.418 317.354 245.548 316.964 245.809C316.573 246.053 316.248 246.378 315.987 246.785C315.727 247.192 315.523 247.664 315.377 248.201C315.23 248.722 315.125 249.259 315.06 249.812C314.994 250.35 314.946 250.879 314.913 251.399C314.897 251.92 314.889 252.384 314.889 252.791H321.188C321.285 252.107 321.334 251.44 321.334 250.789ZM340.719 247.469C340.1 247.599 339.498 247.819 338.912 248.128C338.326 248.437 337.805 248.82 337.35 249.275C336.894 249.715 336.528 250.228 336.251 250.813C335.974 251.383 335.836 252.01 335.836 252.693C335.836 254.321 335.828 255.932 335.812 257.527C335.795 259.122 335.771 260.734 335.738 262.361L339.303 262.508V266.902L327.389 267.146L327.73 262.508L330.953 262.361L331.295 246.639L328.707 246.736L328.561 242.244L335.104 241.609V244.979C335.445 244.702 335.844 244.401 336.3 244.075C336.756 243.75 337.236 243.44 337.74 243.147C338.245 242.854 338.749 242.594 339.254 242.366C339.775 242.122 340.263 241.951 340.719 241.854V247.469ZM366.549 252.205C366.549 253.54 366.5 254.842 366.402 256.111L355.904 256.307C355.904 256.648 355.921 257.063 355.953 257.552C355.986 258.024 356.035 258.528 356.1 259.065C356.181 259.586 356.287 260.107 356.417 260.628C356.563 261.132 356.751 261.596 356.979 262.02C357.206 262.426 357.483 262.76 357.809 263.021C358.15 263.265 358.557 263.387 359.029 263.387C359.534 263.387 359.965 263.257 360.323 262.996C360.698 262.719 360.999 262.386 361.227 261.995C361.471 261.588 361.658 261.149 361.788 260.677C361.918 260.205 362.008 259.757 362.057 259.334H366.305C366.158 260.262 365.914 261.198 365.572 262.142C365.23 263.086 364.775 263.94 364.205 264.705C363.635 265.47 362.944 266.097 362.13 266.585C361.316 267.057 360.364 267.293 359.273 267.293C358.134 267.293 357.149 267.081 356.319 266.658C355.506 266.219 354.814 265.641 354.244 264.925C353.674 264.209 353.211 263.387 352.853 262.459C352.494 261.515 352.218 260.547 352.022 259.554C351.843 258.545 351.721 257.535 351.656 256.526C351.591 255.517 351.559 254.581 351.559 253.719C351.559 252.938 351.599 252.091 351.681 251.18C351.778 250.268 351.933 249.365 352.145 248.47C352.356 247.575 352.641 246.712 352.999 245.882C353.373 245.052 353.837 244.327 354.391 243.709C354.944 243.074 355.603 242.57 356.368 242.195C357.133 241.805 358.02 241.609 359.029 241.609C360.755 241.609 362.114 241.886 363.106 242.439C364.099 242.977 364.848 243.725 365.353 244.686C365.873 245.63 366.199 246.753 366.329 248.055C366.476 249.34 366.549 250.724 366.549 252.205ZM362.301 250.789C362.301 250.301 362.268 249.747 362.203 249.129C362.154 248.51 362.024 247.924 361.812 247.371C361.617 246.818 361.324 246.354 360.934 245.979C360.543 245.605 360.022 245.418 359.371 245.418C358.801 245.418 358.321 245.548 357.931 245.809C357.54 246.053 357.215 246.378 356.954 246.785C356.694 247.192 356.49 247.664 356.344 248.201C356.197 248.722 356.091 249.259 356.026 249.812C355.961 250.35 355.912 250.879 355.88 251.399C355.864 251.92 355.855 252.384 355.855 252.791H362.154C362.252 252.107 362.301 251.44 362.301 250.789ZM388.814 263.533L388.326 267.439L380.123 267.098L380.025 263.143L382.174 262.898C382.223 260.685 382.263 258.479 382.296 256.282C382.345 254.085 382.369 251.88 382.369 249.666C382.369 249.275 382.328 248.868 382.247 248.445C382.182 248.022 382.06 247.632 381.881 247.273C381.702 246.915 381.45 246.622 381.124 246.395C380.815 246.167 380.416 246.053 379.928 246.053C379.212 246.053 378.601 246.256 378.097 246.663C377.608 247.054 377.21 247.542 376.9 248.128C376.591 248.714 376.363 249.349 376.217 250.032C376.07 250.716 375.989 251.342 375.973 251.912C375.891 253.751 375.834 255.582 375.802 257.405C375.785 259.228 375.761 261.059 375.729 262.898H377.877L378.121 266.854L369.674 266.951V262.459L372.066 262.312L371.92 246.443L368.355 246.199L368.453 242.049L375.484 241.805L375.631 245.271C375.956 244.783 376.339 244.319 376.778 243.88C377.234 243.424 377.73 243.025 378.268 242.684C378.805 242.342 379.366 242.073 379.952 241.878C380.554 241.666 381.165 241.561 381.783 241.561C382.516 241.561 383.142 241.683 383.663 241.927C384.184 242.171 384.623 242.505 384.981 242.928C385.34 243.351 385.616 243.839 385.812 244.393C386.023 244.93 386.186 245.507 386.3 246.126C386.414 246.728 386.487 247.347 386.52 247.981C386.552 248.6 386.568 249.194 386.568 249.764C386.568 252.026 386.536 254.28 386.471 256.526C386.422 258.772 386.373 261.027 386.324 263.289L388.814 263.533ZM208.59 312.996L208.492 317H200.24V313.094H201.949L197.115 306.697L195.846 308.406L195.748 312.898L198.629 313.143L198.482 317.195L189.547 316.805V312.557L191.598 312.41V285.896H188.619L188.717 281.6H196.09L195.943 302.693L201.217 295.711H199.215L198.873 292.049L208.248 291.658L208.395 295.711L205.514 295.809L199.459 303.768L206.539 312.85L208.59 312.996ZM218.941 313.143L218.795 317.195L209.859 316.805V312.557L211.91 312.41V286.141H208.932L209.029 281.844H216.891L216.305 312.898L218.941 313.143ZM236.3 303.719C236.3 304.533 236.251 305.436 236.153 306.429C236.056 307.422 235.885 308.431 235.641 309.456C235.396 310.465 235.071 311.458 234.664 312.435C234.273 313.395 233.777 314.249 233.175 314.998C232.573 315.747 231.865 316.349 231.051 316.805C230.253 317.26 229.317 317.488 228.243 317.488C227.234 317.488 226.347 317.301 225.582 316.927C224.817 316.536 224.158 316.032 223.604 315.413C223.051 314.778 222.587 314.046 222.213 313.216C221.839 312.386 221.537 311.523 221.31 310.628C221.098 309.733 220.943 308.829 220.846 307.918C220.764 307.007 220.724 306.16 220.724 305.379C220.724 304.565 220.772 303.654 220.87 302.645C220.968 301.635 221.131 300.618 221.358 299.593C221.603 298.551 221.92 297.542 222.311 296.565C222.717 295.589 223.214 294.726 223.8 293.978C224.402 293.213 225.11 292.602 225.924 292.146C226.738 291.691 227.69 291.463 228.78 291.463C229.773 291.463 230.644 291.658 231.393 292.049C232.158 292.439 232.817 292.96 233.37 293.611C233.94 294.262 234.404 295.011 234.762 295.857C235.136 296.704 235.437 297.583 235.665 298.494C235.893 299.389 236.056 300.293 236.153 301.204C236.251 302.116 236.3 302.954 236.3 303.719ZM232.442 303.572C232.442 303.23 232.426 302.791 232.394 302.254C232.361 301.717 232.296 301.147 232.198 300.545C232.117 299.943 231.995 299.34 231.832 298.738C231.669 298.136 231.458 297.591 231.197 297.103C230.937 296.614 230.611 296.224 230.221 295.931C229.846 295.621 229.399 295.467 228.878 295.467C228.243 295.467 227.698 295.662 227.242 296.053C226.803 296.427 226.42 296.915 226.095 297.518C225.785 298.12 225.533 298.795 225.338 299.544C225.143 300.276 224.988 301.017 224.874 301.766C224.776 302.498 224.711 303.19 224.679 303.841C224.646 304.492 224.63 305.021 224.63 305.428C224.63 305.77 224.646 306.209 224.679 306.746C224.711 307.267 224.776 307.828 224.874 308.431C224.972 309.033 225.102 309.635 225.265 310.237C225.444 310.823 225.663 311.36 225.924 311.849C226.184 312.337 226.502 312.736 226.876 313.045C227.25 313.338 227.69 313.484 228.194 313.484C228.813 313.484 229.342 313.297 229.781 312.923C230.237 312.549 230.619 312.068 230.929 311.482C231.254 310.88 231.515 310.213 231.71 309.48C231.905 308.748 232.052 308.016 232.149 307.283C232.263 306.535 232.337 305.835 232.369 305.184C232.418 304.533 232.442 303.995 232.442 303.572ZM256.832 296.297L254.488 296.443L249.85 317.049L244.332 317.195L239.693 295.711H237.447L237.691 291.561L245.895 291.658L245.992 295.613L243.844 295.809L247.213 312.312L250.777 296.053L248.629 295.809L248.385 291.902L256.832 291.805V296.297ZM277.926 313.533L277.438 317.439L269.234 317.098L269.137 313.143L271.285 312.898C271.334 310.685 271.375 308.479 271.407 306.282C271.456 304.085 271.48 301.88 271.48 299.666C271.48 299.275 271.44 298.868 271.358 298.445C271.293 298.022 271.171 297.632 270.992 297.273C270.813 296.915 270.561 296.622 270.235 296.395C269.926 296.167 269.527 296.053 269.039 296.053C268.323 296.053 267.713 296.256 267.208 296.663C266.72 297.054 266.321 297.542 266.012 298.128C265.702 298.714 265.475 299.349 265.328 300.032C265.182 300.716 265.1 301.342 265.084 301.912C265.003 303.751 264.946 305.582 264.913 307.405C264.897 309.228 264.872 311.059 264.84 312.898H266.988L267.232 316.854L258.785 316.951V312.459L261.178 312.312L261.031 296.443L257.467 296.199L257.564 292.049L264.596 291.805L264.742 295.271C265.068 294.783 265.45 294.319 265.89 293.88C266.345 293.424 266.842 293.025 267.379 292.684C267.916 292.342 268.478 292.073 269.063 291.878C269.666 291.666 270.276 291.561 270.895 291.561C271.627 291.561 272.254 291.683 272.774 291.927C273.295 292.171 273.735 292.505 274.093 292.928C274.451 293.351 274.728 293.839 274.923 294.393C275.134 294.93 275.297 295.507 275.411 296.126C275.525 296.728 275.598 297.347 275.631 297.981C275.663 298.6 275.68 299.194 275.68 299.764C275.68 302.026 275.647 304.28 275.582 306.526C275.533 308.772 275.484 311.027 275.436 313.289L277.926 313.533ZM294.82 302.205C294.82 303.54 294.771 304.842 294.674 306.111L284.176 306.307C284.176 306.648 284.192 307.063 284.225 307.552C284.257 308.024 284.306 308.528 284.371 309.065C284.452 309.586 284.558 310.107 284.688 310.628C284.835 311.132 285.022 311.596 285.25 312.02C285.478 312.426 285.755 312.76 286.08 313.021C286.422 313.265 286.829 313.387 287.301 313.387C287.805 313.387 288.237 313.257 288.595 312.996C288.969 312.719 289.27 312.386 289.498 311.995C289.742 311.588 289.929 311.149 290.06 310.677C290.19 310.205 290.279 309.757 290.328 309.334H294.576C294.43 310.262 294.186 311.198 293.844 312.142C293.502 313.086 293.046 313.94 292.477 314.705C291.907 315.47 291.215 316.097 290.401 316.585C289.588 317.057 288.635 317.293 287.545 317.293C286.406 317.293 285.421 317.081 284.591 316.658C283.777 316.219 283.085 315.641 282.516 314.925C281.946 314.209 281.482 313.387 281.124 312.459C280.766 311.515 280.489 310.547 280.294 309.554C280.115 308.545 279.993 307.535 279.928 306.526C279.863 305.517 279.83 304.581 279.83 303.719C279.83 302.938 279.871 302.091 279.952 301.18C280.05 300.268 280.204 299.365 280.416 298.47C280.628 297.575 280.912 296.712 281.271 295.882C281.645 295.052 282.109 294.327 282.662 293.709C283.215 293.074 283.875 292.57 284.64 292.195C285.405 291.805 286.292 291.609 287.301 291.609C289.026 291.609 290.385 291.886 291.378 292.439C292.371 292.977 293.119 293.725 293.624 294.686C294.145 295.63 294.47 296.753 294.601 298.055C294.747 299.34 294.82 300.724 294.82 302.205ZM290.572 300.789C290.572 300.301 290.54 299.747 290.475 299.129C290.426 298.51 290.296 297.924 290.084 297.371C289.889 296.818 289.596 296.354 289.205 295.979C288.814 295.605 288.294 295.418 287.643 295.418C287.073 295.418 286.593 295.548 286.202 295.809C285.812 296.053 285.486 296.378 285.226 296.785C284.965 297.192 284.762 297.664 284.615 298.201C284.469 298.722 284.363 299.259 284.298 299.812C284.233 300.35 284.184 300.879 284.151 301.399C284.135 301.92 284.127 302.384 284.127 302.791H290.426C290.523 302.107 290.572 301.44 290.572 300.789ZM321.383 313.582L321.236 317.635L312.301 317.244V312.996L314.352 312.85V296.395L304.977 296.59V312.947L307.809 312.85L307.662 316.902H297.359V312.605L300.582 312.508V296.297H297.018L297.115 292H300.533C300.549 290.242 300.712 288.663 301.021 287.264C301.347 285.864 301.884 284.676 302.633 283.699C303.398 282.723 304.415 281.974 305.685 281.453C306.97 280.932 308.59 280.672 310.543 280.672C310.885 280.672 311.218 280.68 311.544 280.696C311.869 280.713 312.203 280.737 312.545 280.77L312.447 285.066C311.064 285.034 309.9 285.099 308.956 285.262C308.028 285.424 307.271 285.758 306.686 286.263C306.1 286.767 305.668 287.483 305.392 288.411C305.131 289.323 304.977 290.519 304.928 292L319.332 292.146L318.746 313.338L321.383 313.582ZM319.332 286.287C319.332 286.71 319.251 287.109 319.088 287.483C318.925 287.858 318.705 288.183 318.429 288.46C318.152 288.737 317.826 288.956 317.452 289.119C317.078 289.282 316.679 289.363 316.256 289.363C315.833 289.363 315.434 289.282 315.06 289.119C314.685 288.956 314.36 288.737 314.083 288.46C313.806 288.183 313.587 287.858 313.424 287.483C313.261 287.109 313.18 286.71 313.18 286.287C313.18 285.864 313.261 285.465 313.424 285.091C313.587 284.716 313.806 284.391 314.083 284.114C314.36 283.838 314.685 283.618 315.06 283.455C315.434 283.292 315.833 283.211 316.256 283.211C316.679 283.211 317.078 283.292 317.452 283.455C317.826 283.618 318.152 283.838 318.429 284.114C318.705 284.391 318.925 284.716 319.088 285.091C319.251 285.465 319.332 285.864 319.332 286.287ZM337.545 311.336C337.545 312.247 337.366 313.086 337.008 313.851C336.666 314.599 336.194 315.258 335.592 315.828C334.99 316.382 334.29 316.813 333.492 317.122C332.711 317.431 331.881 317.586 331.002 317.586C330.188 317.586 329.448 317.366 328.78 316.927C328.113 316.487 327.535 315.975 327.047 315.389L326.51 317.488L323.434 317.244L323.678 309.139L328.365 309.188C328.333 309.383 328.308 309.586 328.292 309.798C328.276 310.009 328.268 310.213 328.268 310.408C328.268 310.799 328.316 311.181 328.414 311.556C328.512 311.914 328.658 312.239 328.854 312.532C329.049 312.825 329.301 313.061 329.61 313.24C329.936 313.403 330.318 313.484 330.758 313.484C331.067 313.484 331.352 313.411 331.612 313.265C331.889 313.102 332.117 312.898 332.296 312.654C332.491 312.41 332.638 312.142 332.735 311.849C332.849 311.556 332.906 311.271 332.906 310.994C332.906 310.294 332.743 309.676 332.418 309.139C332.109 308.585 331.71 308.089 331.222 307.649C330.733 307.21 330.196 306.819 329.61 306.478C329.024 306.119 328.463 305.802 327.926 305.525C327.047 305.07 326.314 304.59 325.729 304.085C325.159 303.58 324.703 303.027 324.361 302.425C324.02 301.806 323.775 301.123 323.629 300.374C323.499 299.625 323.434 298.771 323.434 297.811C323.434 296.915 323.604 296.085 323.946 295.32C324.304 294.555 324.785 293.896 325.387 293.343C325.989 292.773 326.681 292.334 327.462 292.024C328.259 291.715 329.098 291.561 329.977 291.561C330.79 291.561 331.531 291.78 332.198 292.22C332.866 292.659 333.443 293.172 333.932 293.758L334.469 291.658L337.545 291.902L337.301 300.008L332.613 299.959C332.646 299.764 332.67 299.56 332.687 299.349C332.703 299.137 332.711 298.934 332.711 298.738C332.711 298.348 332.662 297.973 332.564 297.615C332.467 297.241 332.32 296.907 332.125 296.614C331.93 296.321 331.669 296.093 331.344 295.931C331.035 295.752 330.66 295.662 330.221 295.662C329.911 295.662 329.627 295.743 329.366 295.906C329.106 296.053 328.878 296.248 328.683 296.492C328.487 296.736 328.333 297.005 328.219 297.298C328.121 297.591 328.072 297.876 328.072 298.152C328.072 298.868 328.219 299.503 328.512 300.057C328.821 300.61 329.203 301.106 329.659 301.546C330.131 301.985 330.652 302.384 331.222 302.742C331.808 303.084 332.385 303.393 332.955 303.67C333.801 304.109 334.509 304.581 335.079 305.086C335.665 305.59 336.137 306.152 336.495 306.771C336.869 307.389 337.138 308.073 337.301 308.821C337.464 309.57 337.545 310.408 337.545 311.336ZM358.834 312.996L358.736 317H350.484V313.094H352.193L347.359 306.697L346.09 308.406L345.992 312.898L348.873 313.143L348.727 317.195L339.791 316.805V312.557L341.842 312.41V285.896H338.863L338.961 281.6H346.334L346.188 302.693L351.461 295.711H349.459L349.117 292.049L358.492 291.658L358.639 295.711L355.758 295.809L349.703 303.768L356.783 312.85L358.834 312.996ZM367.281 281.502L366.061 309.48L362.887 309.725L361.129 281.746L367.281 281.502ZM367.428 314.217C367.428 314.64 367.346 315.039 367.184 315.413C367.021 315.787 366.801 316.113 366.524 316.39C366.248 316.666 365.922 316.886 365.548 317.049C365.174 317.212 364.775 317.293 364.352 317.293C363.928 317.293 363.521 317.212 363.131 317.049C362.757 316.886 362.423 316.666 362.13 316.39C361.853 316.113 361.633 315.787 361.471 315.413C361.308 315.039 361.227 314.64 361.227 314.217C361.227 313.794 361.308 313.395 361.471 313.021C361.633 312.63 361.853 312.296 362.13 312.02C362.423 311.727 362.757 311.499 363.131 311.336C363.521 311.173 363.928 311.092 364.352 311.092C364.775 311.092 365.174 311.173 365.548 311.336C365.922 311.499 366.248 311.727 366.524 312.02C366.801 312.296 367.021 312.63 367.184 313.021C367.346 313.395 367.428 313.794 367.428 314.217Z" fill="#E36F01"/>
<ellipse cx="404.5" cy="21" rx="21.5" ry="21" fill="#C5E7FF"/>
</svg>
